# AST/ASF file generated using VICON BodyLanguage
# -----------------------------------------------
:version 1.10
:name VICON
:units
  mass 1.0
  length 0.45
  angle deg
:documentation
   .ast/.asf automatically generated from VICON data using
   VICON BodyBuilder and BodyLanguage model FoxedUp or BRILLIANT.MOD
:root
   order TX TY TZ RX RY RZ
   axis XYZ
   position 0 0 0  
   orientation 0 0 0 
:bonedata
  begin
     id 1 
     name lhipjoint
     direction 0.716248 -0.617586 0.324924 
     length 2.63557 
     axis 0 0 0  XYZ
  end
  begin
     id 2 
     name lfemur
     direction 0.34202 -0.939693 0  
     length 7.01235  
     axis 0 0 20  XYZ
    dof rx ry rz
    limits (-160.0 20.0)
           (-70.0 70.0)
           (-60.0 70.0)
  end
  begin
     id 3 
     name ltibia
     direction 0.34202 -0.939693 0   
     length 8.14348   
     axis 0 0 20   XYZ
    dof rx
    limits (-10.0 170.0)
  end
  begin
     id 4 
     name lfoot
     direction 0.0982064 -0.26982 0.95789   
     length 1.99077   
     axis -90 7.62852e-016 20   XYZ
    dof rx rz
    limits (-45.0 90.0)
           (-70.0 20.0)
  end
  begin
     id 5 
     name ltoes
     direction 1.53511e-011 -4.21891e-011 1   
     length 0.99735   
     axis -90 7.62852e-016 20   XYZ
    dof rx
    limits (-90.0 20.0)
  end
  begin
     id 6 
     name rhipjoint
     direction -0.687828 -0.642391 0.337975   
     length 2.5338  
     axis 0 0 0  XYZ 
  end
  begin
     id 7 
     name rfemur
     direction -0.34202 -0.939693 0   
     length 6.90199   
     axis 0 0 -20   XYZ
    dof rx ry rz
    limits (-160.0 20.0)
           (-70.0 70.0)
           (-70.0 60.0)
  end
  begin
     id 8 
     name rtibia
     direction -0.34202 -0.939693 0   
     length 8.07725   
     axis 0 0 -20   XYZ
    dof rx
    limits (-10.0 170.0)
 end
 begin
     id 9 
     name rfoot
     direction -0.0912384 -0.250675 0.963762   
     length 2.11621  
     axis -90 -7.62852e-016 -20   XYZ
    dof rx rz
    limits (-45.0 90.0)
           (-20.0 70.0)
  end
  begin
     id 10 
     name rtoes
     direction -1.5359e-011 -4.21894e-011 1   
     length 1.06031   
     axis -90 -7.62852e-016 -20   XYZ
    dof rx
    limits (-90.0 20.0)
  end
  begin
     id 11 
     name lowerback
     direction -0.0403572 0.987953 -0.149396   
     length 2.05637   
     axis 0 0 0   XYZ
    dof rx ry rz
    limits (-20.0 45.0)
           (-30.0 30.0)
           (-30.0 30.0)
  end
  begin
     id 12 
     name upperback
     direction -0.00512151 0.997598 0.0690792   
     length 2.01086   
     axis 0 0 0   XYZ
    dof rx ry rz
    limits (-20.0 45.0)
           (-30.0 30.0)
           (-30.0 30.0)
  end
  begin
     id 13 
     name thorax
     direction 0.0136133 0.989392 0.14463   
     length 2.09035   
     axis 0 0 0   XYZ
    dof rx ry rz
    limits (-20.0 45.0)
           (-30.0 30.0)
           (-30.0 30.0)
  end
  begin
     id 14 
     name lowerneck
     direction 0.0250714 0.992811 0.11704   
     length 1.70806   
     axis 0 0 0   XYZ
    dof rx ry rz
    limits (-20.0 45.0)
           (-30.0 30.0)
           (-30.0 30.0)
  end
  begin
     id 15 
     name upperneck
     direction -0.0519205 0.998394 -0.0226787   
     length 1.6689   
     axis 0 0 0   XYZ
    dof rx ry rz
    limits (-20.0 45.0)
           (-30.0 30.0)
           (-30.0 30.0)
  end
  begin
     id 16
     name head
     direction -0.0201693 0.999547 -0.0223192  
     length 1.83412  
     axis 0 0 0   XYZ
    dof rx ry rz
    limits (-20.0 45.0)
           (-30.0 30.0)
           (-30.0 30.0)
  end
  begin
     id 17 
     name lclavicle
     direction 0.89585 0.444077 -0.0157448  
     length 3.39587  
     axis 0 0 0   XYZ
    dof ry rz
    limits (-20.0 10.0)
           (0.0 20.0)
  end
  begin
     id 18 
     name lhumerus
     direction 1 -4.48956e-011 1.99132e-028   
     length 5.79199   
     axis 180 -30 -90   XYZ
    dof rx ry rz
    limits (-60.0 90.0)
           (-90.0 90.0)
           (-90.0 90.0)
  end
  begin
     id 19
     name lradius
     direction 1 -4.48974e-011 8.72912e-028   
     length 3.49908   
     axis 180 -30 -90   XYZ
    dof rx
    limits (-10.0 170.0)
  end
  begin
     id 20
     name lwrist
     direction 1 -4.48994e-011 4.76442e-027   
     length 1.74954   
     axis -3.27502e-015 90 90   XYZ
    dof ry
    limits (-180.0 0.0)
 end
  begin
     id 21 
     name lhand
     direction 1 -4.48945e-011 9.531e-027   
     length 0.593861   
     axis -6.08098e-015 90 90   XYZ
    dof rx rz
    limits (-90.0 90.0)
           (-45.0 45.0)
  end
  begin
     id 22 
     name lfingers
     direction 1 -4.48945e-011 1.9062e-026   
     length 0.478786   
     axis -1.21619e-014 90 90   XYZ
    dof rx
    limits (0.0 90.0)
  end
  begin
     id 23
     name lthumb
     direction 0.707107 -6.34904e-011 0.707107   
     length 0.687444   
     axis -90 45 -9.86923e-015   XYZ
    dof rx rz
    limits (-45.0 45.0)
           (-45.0 45.0)
  end
  begin
     id 24 
     name rclavicle
     direction -0.940466 0.338394 0.0318182   
     length 3.51226  
     axis 0 0 0   XYZ 
    dof ry rz
    limits (-10.0 20.0)
           (-20.0 0.0)
  end
  begin
     id 25 
     name rhumerus
     direction -1 -4.48976e-011 2.0905e-027  
     length 5.73799   
     axis 180 30 90   XYZ
    dof rx ry rz
    limits (-90.0 60.0)
           (-90.0 90.0)
           (-90.0 90.0)
  end
  begin
     id 26 
     name rradius
     direction -1 -4.48968e-011 -9.39692e-029   
     length 3.57916   
     axis 180 30 90   XYZ
    dof rx
    limits (-10.0 170.0)
  end
  begin
     id 27 
     name rwrist
     direction -1 -4.48959e-011 4.7652e-027   
     length 1.78958   
     axis -3.27502e-015 -90 -90   XYZ
    dof ry
    limits (-180.0 0.0)
  end
  begin
     id 28
     name rhand
     direction -1 -4.49042e-011 9.5267e-027   
     length 0.615577   
     axis -6.08098e-015 -90 -90   XYZ
    dof rx rz
    limits (-90.0 90.0)
           (-45.0 45.0)
  end
  begin
     id 29
     name rfingers
     direction -1 -4.48935e-011 1.90629e-026   
     length 0.496294   
     axis -1.21619e-014 -90 -90   XYZ
    dof rx
    limits (0.0 90.0)
  end
  begin
     id 30
     name rthumb
     direction -0.707107 -6.34977e-011 0.707107   
     length 0.712582   
     axis -90 -45 9.86923e-015   XYZ
    dof rx rz
    limits (-45.0 45.0)
           (-45.0 45.0)
  end
:hierarchy
  begin
    root lhipjoint rhipjoint lowerback
    lhipjoint lfemur
    lfemur ltibia
    ltibia lfoot
    lfoot ltoes
    rhipjoint rfemur
    rfemur rtibia
    rtibia rfoot
    rfoot rtoes
    lowerback upperback
    upperback thorax
    thorax lowerneck lclavicle rclavicle
    lowerneck upperneck
    upperneck head
    lclavicle lhumerus
    lhumerus lradius
    lradius lwrist
    lwrist lhand lthumb
    lhand lfingers
    rclavicle rhumerus
    rhumerus rradius
    rradius rwrist
    rwrist rhand rthumb
    rhand rfingers
  end

#!OML:ASF H:\Terrain\Patient Classification 1\PaulMetrics\March17Take5\PaulMetrics.ASF
:FULLY-SPECIFIED
:DEGREES
942
root -2.46419 16.694 -28.4746 -172.68 247.411 179.721
lowerback 1.82872 2.06922 -5.08868
upperback -2.80011 2.43224 -2.64988
thorax -4.02156 1.29881 -0.020989
lowerneck 4.26016 15.1205 11.0341
upperneck 5.22871 21.4068 -16.7484
head 3.89034 10.6006 -5.85473
rclavicle 9.0944e-015 5.56597e-015
rhumerus -49.3309 12.5473 -91.4665
rradius 40.9654
rwrist -14.025
rhand -18.7429 -31.7799
rfingers 7.12502
rthumb 7.55332 -61.625
lclavicle 9.0944e-015 5.56597e-015
lhumerus -41.3181 -7.59652 79.0317
lradius 30.1789
lwrist 12.5482
lhand -3.91844 -17.8516
lfingers 7.12502
lthumb 21.8323 10.9369
rfemur -12.1291 -13.5975 18.2849
rtibia 60.0372
rfoot -13.3053 -17.1823
rtoes -11.6987
lfemur -27.8975 3.82173 -31.316
ltibia 33.3153
lfoot -15.3482 11.1865
ltoes 15.2821
943
root -2.55389 16.7018 -28.413 -172.738 246.546 179.831
lowerback 1.57974 2.03554 -4.95908
upperback -2.74078 2.41145 -2.70878
thorax -3.80902 1.28009 -0.140357
lowerneck 4.25393 15.0231 11.0764
upperneck 5.3073 21.2724 -16.5478
head 3.87737 10.538 -5.81377
rclavicle 7.25564e-015 -2.38542e-014
rhumerus -49.211 12.3238 -91.6341
rradius 40.581
rwrist -13.9947
rhand -18.8838 -31.7828
rfingers 7.12502
rthumb 7.4173 -61.6327
lclavicle 7.25564e-015 -2.38542e-014
lhumerus -41.1486 -8.62261 79.5193
lradius 31.0158
lwrist 13.3464
lhand -4.28254 -18.2015
lfingers 7.12502
lthumb 21.4826 10.6272
rfemur -13.3912 -13.4239 18.2983
rtibia 61.5297
rfoot -12.9636 -16.8843
rtoes -13.3547
lfemur -27.399 3.60588 -31.4393
ltibia 33.1162
lfoot -15.4311 10.6262
ltoes 15.5756
944
root -2.63997 16.7197 -28.3581 -172.884 245.587 179.987
lowerback 1.41282 1.91667 -4.93169
upperback -2.6157 2.27197 -2.7418
thorax -3.57664 1.20495 -0.172003
lowerneck 4.14375 14.9471 11.2305
upperneck 5.36245 21.1725 -16.4674
head 3.90486 10.4884 -5.80935
rclavicle -6.13251e-014 -7.95139e-016
rhumerus -48.7481 11.984 -91.4457
rradius 41.7407
rwrist -9.76317
rhand -13.3512 -46.9656
rfingers 7.12502
rthumb 12.7547 -76.556
lclavicle -6.13251e-014 -7.95139e-016
lhumerus -40.6907 -9.00942 79.6779
lradius 31.6573
lwrist 13.697
lhand -4.27599 -18.824
lfingers 7.12502
lthumb 21.4889 10.004
rfemur -14.6847 -13.0433 18.3502
rtibia 62.8549
rfoot -12.7095 -16.4398
rtoes -13.7401
lfemur -26.9872 3.07318 -31.4602
ltibia 33.0731
lfoot -15.5437 10.0965
ltoes 16.5364
945
root -2.72277 16.7296 -28.3021 -172.927 244.582 179.895
lowerback 1.3398 1.72301 -4.6311
upperback -2.46168 2.03547 -2.81171
thorax -3.35233 1.07428 -0.392342
lowerneck 4.1147 14.9142 11.3807
upperneck 5.29204 21.1236 -16.4373
head 3.89409 10.4704 -5.82426
rclavicle -5.47652e-014 -3.89618e-014
rhumerus -48.4854 12.074 -91.8174
rradius 40.8009
rwrist -10.1725
rhand -14.5422 -40.826
rfingers 7.12502
rthumb 11.6062 -70.4846
lclavicle -5.47652e-014 -3.89618e-014
lhumerus -40.5477 -9.01981 79.4829
lradius 33.0263
lwrist 13.9963
lhand -4.6522 -18.5874
lfingers 7.12502
lthumb 21.1275 10.2815
rfemur -15.8033 -12.6443 18.4727
rtibia 64.0461
rfoot -12.3053 -15.9126
rtoes -12.9505
lfemur -26.4554 2.44069 -31.3672
ltibia 33.0795
lfoot -15.6987 9.64188
ltoes 17.7733
946
root -2.80286 16.7262 -28.2424 -172.274 243.529 179.031
lowerback 1.67201 1.54854 -4.50061
upperback -2.61564 1.79945 -2.3415
thorax -3.70313 0.969962 0.016587
lowerneck 4.23624 14.8905 11.189
upperneck 5.58756 21.1317 -16.4836
head 3.94857 10.4644 -5.81527
rclavicle -6.65929e-015 -1.27222e-014
rhumerus -49.0551 12.9278 -92.1146
rradius 39.809
rwrist -12.9887
rhand -18.037 -30.9161
rfingers 7.12502
rthumb 8.23458 -60.7357
lclavicle -6.65929e-015 -1.27222e-014
lhumerus -41.2173 -8.83186 80.0305
lradius 34.8134
lwrist 14.4402
lhand -5.45331 -18.463
lfingers 7.12502
lthumb 20.3578 10.4899
rfemur -16.8286 -12.1958 18.9666
rtibia 65.0962
rfoot -12.1468 -15.4926
rtoes -11.7374
lfemur -25.8671 1.98504 -30.9735
ltibia 32.9727
lfoot -15.884 9.12038
ltoes 18.486
947
root -2.88133 16.7169 -28.1833 -172.868 242.534 179.551
lowerback 1.8462 1.44815 -4.83099
upperback -2.65356 1.64668 -2.18862
thorax -3.85146 0.9088 0.360039
lowerneck 4.50721 14.7936 11.2449
upperneck 5.5823 21.0316 -16.6178
head 3.90915 10.4278 -5.89648
rclavicle 4.78574e-014 2.38542e-014
rhumerus -49.0033 12.393 -91.261
rradius 39.3808
rwrist -10.19
rhand -14.8319 -30.3401
rfingers 7.12502
rthumb 11.3269 -60.0142
lclavicle 4.78574e-014 2.38542e-014
lhumerus -41.5237 -9.24402 80.6237
lradius 36.1436
lwrist 15.049
lhand -6.30503 -18.8377
lfingers 7.12502
lthumb 19.5391 10.2005
rfemur -17.8868 -11.7677 18.7223
rtibia 66.1022
rfoot -12.2709 -14.7791
rtoes -12.4756
lfemur -25.1336 1.37994 -31.2418
ltibia 32.702
lfoot -16.1242 8.73634
ltoes 18.06
948
root -2.96249 16.71 -28.1271 -174.26 241.601 180.966
lowerback 1.95464 1.40089 -5.5636
upperback -2.65435 1.54239 -2.25989
thorax -3.93152 0.876771 0.696345
lowerneck 4.71658 14.6467 11.2184
upperneck 5.55176 20.8373 -16.5625
head 3.82882 10.3451 -5.91708
rclavicle -9.54166e-015 2.38542e-015
rhumerus -49.1979 12.0996 -91.0744
rradius 39.282
rwrist -9.6685
rhand -14.5932 -29.8415
rfingers 7.12502
rthumb 11.5571 -59.5028
lclavicle -9.54166e-015 2.38542e-015
lhumerus -41.562 -9.9156 81.0947
lradius 37.1796
lwrist 15.8338
lhand -7.1245 -19.2752
lfingers 7.12502
lthumb 18.7511 9.84102
rfemur -18.9665 -11.3523 17.9886
rtibia 67.0596
rfoot -12.3445 -14.1156
rtoes -15.303
lfemur -24.2405 0.574941 -31.9603
ltibia 32.2766
lfoot -16.0985 8.5793
ltoes 17.5559
949
root -3.04826 16.7103 -28.0683 -175.213 240.68 181.847
lowerback 2.10312 1.35962 -5.90822
upperback -2.59905 1.45964 -2.36191
thorax -3.96206 0.842877 0.784388
lowerneck 4.64008 14.4744 10.9145
upperneck 5.50062 20.5686 -16.4288
head 3.7414 10.2079 -5.86218
rclavicle 3.97569e-015 3.18055e-014
rhumerus -49.2737 11.9317 -91.0326
rradius 38.9769
rwrist -9.55158
rhand -14.5044 -31.089
rfingers 7.12502
rthumb 11.6427 -60.7455
lclavicle 3.97569e-015 3.18055e-014
lhumerus -41.4554 -10.4602 81.317
lradius 38.2525
lwrist 16.697
lhand -7.3897 -19.4482
lfingers 7.12502
lthumb 18.496 9.69244
rfemur -19.927 -10.8455 17.5258
rtibia 67.8467
rfoot -12.0774 -13.8767
rtoes -17.5889
lfemur -23.2896 -0.197908 -32.4109
ltibia 31.7949
lfoot -15.9486 8.44108
ltoes 17.8814
950
root -3.13005 16.7073 -28.0092 -176.203 239.687 182.809
lowerback 2.28481 1.2813 -6.27793
upperback -2.46891 1.32913 -2.42604
thorax -3.93128 0.784301 0.929291
lowerneck 4.46032 14.303 10.3234
upperneck 5.14728 20.2553 -16.404
head 3.55836 10.0467 -5.80505
rclavicle -1.75427e-014 2.14687e-014
rhumerus -49.1773 12.1077 -91.1827
rradius 39.0414
rwrist -10.2964
rhand -14.9792 -30.9217
rfingers 7.12502
rthumb 11.1848 -60.6036
lclavicle -1.75427e-014 2.14687e-014
lhumerus -41.2069 -10.9574 81.6614
lradius 39.2786
lwrist 17.6723
lhand -7.79643 -19.4573
lfingers 7.12502
lthumb 18.1047 9.72013
rfemur -20.8955 -10.2681 16.9926
rtibia 68.5116
rfoot -11.8536 -13.6055
rtoes -18.7789
lfemur -22.4632 -0.973613 -32.9475
ltibia 31.4515
lfoot -16.0725 8.25691
ltoes 17.8012
951
root -3.20824 16.6964 -27.9587 -176.08 238.6 182.63
lowerback 2.33508 1.13923 -6.37252
upperback -2.35794 1.15231 -2.15417
thorax -3.8404 0.701398 1.27464
lowerneck 4.23328 14.2893 9.85901
upperneck 5.04121 20.1924 -16.364
head 3.50399 10.0015 -5.72325
rclavicle -1.5704e-014 1.35174e-014
rhumerus -49.0419 12.0602 -90.8649
rradius 39.0248
rwrist -10.2282
rhand -15.1624 -30.1515
rfingers 7.12502
rthumb 11.0081 -59.8428
lclavicle -1.5704e-014 1.35174e-014
lhumerus -40.8597 -11.2997 82.2082
lradius 40.1354
lwrist 18.7276
lhand -8.38022 -20.4237
lfingers 7.12502
lthumb 17.543 8.8048
rfemur -22.0123 -9.57753 17.161
rtibia 69.0318
rfoot -11.9477 -13.4167
rtoes -18.6261
lfemur -21.9218 -1.70254 -32.891
ltibia 31.3078
lfoot -16.3312 7.93452
ltoes 16.8732
952
root -3.28689 16.6789 -27.9095 -175.032 237.45 181.421
lowerback 2.31177 0.984519 -5.95103
upperback -2.32129 0.98738 -1.7741
thorax -3.77352 0.614691 1.44417
lowerneck 3.87477 14.3725 9.97527
upperneck 5.50187 20.3469 -16.2468
head 3.72004 10.05 -5.64548
rclavicle 2.43014e-014 -3.97569e-015
rhumerus -49.0459 11.8596 -90.587
rradius 38.9764
rwrist -9.86015
rhand -15.0495 -30.2354
rfingers 7.12502
rthumb 11.1171 -59.921
lclavicle 2.43014e-014 -3.97569e-015
lhumerus -40.6837 -11.3898 82.5495
lradius 41.1561
lwrist 19.2345
lhand -8.83103 -21.2855
lfingers 7.12502
lthumb 17.1091 7.98114
rfemur -23.1568 -8.75959 17.9794
rtibia 69.3167
rfoot -12.1176 -13.342
rtoes -17.0546
lfemur -21.5451 -2.24058 -32.2402
ltibia 31.4364
lfoot -16.5852 7.34548
ltoes 15.918
953
root -3.36669 16.6589 -27.8546 -174.802 236.359 181.046
lowerback 2.44912 0.91685 -5.59309
upperback -2.31852 0.90144 -1.81115
thorax -3.83395 0.563602 1.20955
lowerneck 3.60743 14.2768 10.3932
upperneck 5.80251 20.2504 -16.1255
head 3.8698 9.99303 -5.64316
rclavicle 4.48756e-014 -3.4191e-014
rhumerus -49.1716 11.5372 -90.8244
rradius 38.9983
rwrist -9.95447
rhand -15.1601 -30.3783
rfingers 7.12502
rthumb 11.0104 -60.0695
lclavicle 4.48756e-014 -3.4191e-014
lhumerus -40.7506 -11.7834 82.5199
lradius 42.5683
lwrist 19.3697
lhand -9.31501 -20.984
lfingers 7.12502
lthumb 16.6432 8.32239
rfemur -24.1924 -7.91258 18.2141
rtibia 69.6354
rfoot -12.3666 -13.1509
rtoes -16.557
lfemur -20.8357 -2.80788 -31.9702
ltibia 31.5086
lfoot -17.2036 6.28261
ltoes 18.363
954
root -3.45871 16.7172 -27.7821 -175.1 235.289 181.217
lowerback 2.59381 0.824087 -5.53001
upperback -2.20885 0.772712 -1.88567
thorax -3.79129 0.494348 1.10456
lowerneck 3.39689 14.1827 10.41
upperneck 5.67557 20.0982 -16.1011
head 3.84455 9.91542 -5.63969
rclavicle -8.15017e-015 7.95139e-015
rhumerus -49.1493 11.4872 -91.0169
rradius 39.0199
rwrist -10.3975
rhand -15.1629 -30.2372
rfingers 7.12502
rthumb 11.0076 -59.9286
lclavicle -8.15017e-015 7.95139e-015
lhumerus -40.6492 -12.1959 82.5049
lradius 43.9895
lwrist 19.7823
lhand -9.47625 -20.8033
lfingers 7.12502
lthumb 16.488 8.51614
rfemur -24.7073 -7.12718 18.0424
rtibia 69.431
rfoot -12.4801 -13.1854
rtoes -17.498
lfemur -20.59 -3.20155 -32.0473
ltibia 31.6147
lfoot -17.2192 6.10404
ltoes 16.2445
